<svg width="32" height="41" viewBox="0 0 32 41" fill="none" xmlns="http://www.w3.org/2000/svg">
<path fill-rule="evenodd" clip-rule="evenodd" d="M15.6 0C14.4954 0 13.6 0.876721 13.6 1.95804V10.1262L10.6426 7.2308C9.86157 6.46613 8.59526 6.46613 7.81421 7.2308C7.03315 7.99547 7.03315 9.2353 7.81421 9.99997L11.2 13.3147H2C0.89541 13.3147 0 14.1914 0 15.2727C0 16.354 0.89541 17.2308 2 17.2308H11.3707L7.81421 20.7126C7.03315 21.4771 7.03315 22.7169 7.81421 23.4816C8.59526 24.2463 9.86157 24.2463 10.6426 23.4816L13.6 20.5862V38.7692C13.6 39.8506 14.4954 40.7273 15.6 40.7273C16.7046 40.7273 17.6 39.8506 17.6 38.7692V19.5804L21.9563 23.8455C22.7374 24.6099 24.0037 24.6099 24.7848 23.8455C25.5658 23.0808 25.5658 21.841 24.7848 21.0763L20.8568 17.2308H30C31.1046 17.2308 32 16.354 32 15.2727C32 14.1914 31.1046 13.3147 30 13.3147H21.0273L24.7848 9.63609C25.5658 8.87142 25.5658 7.63177 24.7848 6.86711C24.0037 6.10244 22.7374 6.10244 21.9563 6.86711L17.6 11.1322V1.95804C17.6 0.876721 16.7046 0 15.6 0Z" fill="#FFC32C"/>
</svg>
