<svg width="270" height="279" viewBox="0 0 270 279" fill="none" xmlns="http://www.w3.org/2000/svg">
<path d="M11.25 5.625C11.25 8.7316 8.7316 11.25 5.625 11.25C2.5184 11.25 0 8.7316 0 5.625C0 2.5184 2.5184 0 5.625 0C8.7316 0 11.25 2.5184 11.25 5.625Z" fill="#FFC32C"/>
<path d="M48.2144 5.625C48.2144 8.7316 45.696 11.25 42.5894 11.25C39.4828 11.25 36.9644 8.7316 36.9644 5.625C36.9644 2.5184 39.4828 0 42.5894 0C45.696 0 48.2144 2.5184 48.2144 5.625Z" fill="#FFC32C"/>
<path d="M85.1785 5.625C85.1785 8.7316 82.6601 11.25 79.5535 11.25C76.4469 11.25 73.9285 8.7316 73.9285 5.625C73.9285 2.5184 76.4469 0 79.5535 0C82.6601 0 85.1785 2.5184 85.1785 5.625Z" fill="#FFC32C"/>
<path d="M122.143 5.625C122.143 8.7316 119.624 11.25 116.518 11.25C113.411 11.25 110.893 8.7316 110.893 5.625C110.893 2.5184 113.411 0 116.518 0C119.624 0 122.143 2.5184 122.143 5.625Z" fill="#FFC32C"/>
<path d="M159.107 5.625C159.107 8.7316 156.589 11.25 153.482 11.25C150.376 11.25 147.857 8.7316 147.857 5.625C147.857 2.5184 150.376 0 153.482 0C156.589 0 159.107 2.5184 159.107 5.625Z" fill="#FFC32C"/>
<path d="M196.072 5.625C196.072 8.7316 193.553 11.25 190.447 11.25C187.34 11.25 184.822 8.7316 184.822 5.625C184.822 2.5184 187.34 0 190.447 0C193.553 0 196.072 2.5184 196.072 5.625Z" fill="#FFC32C"/>
<path d="M233.036 5.625C233.036 8.7316 230.517 11.25 227.411 11.25C224.304 11.25 221.786 8.7316 221.786 5.625C221.786 2.5184 224.304 0 227.411 0C230.517 0 233.036 2.5184 233.036 5.625Z" fill="#FFC32C"/>
<path d="M270 5.625C270 8.7316 267.482 11.25 264.375 11.25C261.268 11.25 258.75 8.7316 258.75 5.625C258.75 2.5184 261.268 0 264.375 0C267.482 0 270 2.5184 270 5.625Z" fill="#FFC32C"/>
<path d="M11.25 43.875C11.25 46.9816 8.7316 49.5 5.625 49.5C2.5184 49.5 0 46.9816 0 43.875C0 40.7684 2.5184 38.25 5.625 38.25C8.7316 38.25 11.25 40.7684 11.25 43.875Z" fill="#FFC32C"/>
<path d="M48.2144 43.875C48.2144 46.9816 45.696 49.5 42.5894 49.5C39.4828 49.5 36.9644 46.9816 36.9644 43.875C36.9644 40.7684 39.4828 38.25 42.5894 38.25C45.696 38.25 48.2144 40.7684 48.2144 43.875Z" fill="#FFC32C"/>
<path d="M85.1785 43.875C85.1785 46.9816 82.6601 49.5 79.5535 49.5C76.4469 49.5 73.9285 46.9816 73.9285 43.875C73.9285 40.7684 76.4469 38.25 79.5535 38.25C82.6601 38.25 85.1785 40.7684 85.1785 43.875Z" fill="#FFC32C"/>
<path d="M122.143 43.875C122.143 46.9816 119.624 49.5 116.518 49.5C113.411 49.5 110.893 46.9816 110.893 43.875C110.893 40.7684 113.411 38.25 116.518 38.25C119.624 38.25 122.143 40.7684 122.143 43.875Z" fill="#FFC32C"/>
<path d="M159.107 43.875C159.107 46.9816 156.589 49.5 153.482 49.5C150.376 49.5 147.857 46.9816 147.857 43.875C147.857 40.7684 150.376 38.25 153.482 38.25C156.589 38.25 159.107 40.7684 159.107 43.875Z" fill="#FFC32C"/>
<path d="M196.072 43.875C196.072 46.9816 193.553 49.5 190.447 49.5C187.34 49.5 184.822 46.9816 184.822 43.875C184.822 40.7684 187.34 38.25 190.447 38.25C193.553 38.25 196.072 40.7684 196.072 43.875Z" fill="#FFC32C"/>
<path d="M233.036 43.875C233.036 46.9816 230.517 49.5 227.411 49.5C224.304 49.5 221.786 46.9816 221.786 43.875C221.786 40.7684 224.304 38.25 227.411 38.25C230.517 38.25 233.036 40.7684 233.036 43.875Z" fill="#FFC32C"/>
<path d="M270 43.875C270 46.9816 267.482 49.5 264.375 49.5C261.268 49.5 258.75 46.9816 258.75 43.875C258.75 40.7684 261.268 38.25 264.375 38.25C267.482 38.25 270 40.7684 270 43.875Z" fill="#FFC32C"/>
<path d="M11.25 82.125C11.25 85.2316 8.7316 87.75 5.625 87.75C2.5184 87.75 0 85.2316 0 82.125C0 79.0184 2.5184 76.5 5.625 76.5C8.7316 76.5 11.25 79.0184 11.25 82.125Z" fill="#FFC32C"/>
<path d="M11.25 120.375C11.25 123.482 8.7316 126 5.625 126C2.5184 126 0 123.482 0 120.375C0 117.268 2.5184 114.75 5.625 114.75C8.7316 114.75 11.25 117.268 11.25 120.375Z" fill="#FFC32C"/>
<path d="M11.25 158.625C11.25 161.732 8.7316 164.25 5.625 164.25C2.5184 164.25 0 161.732 0 158.625C0 155.518 2.5184 153 5.625 153C8.7316 153 11.25 155.518 11.25 158.625Z" fill="#FFC32C"/>
<path d="M11.25 196.875C11.25 199.982 8.7316 202.5 5.625 202.5C2.5184 202.5 0 199.982 0 196.875C0 193.768 2.5184 191.25 5.625 191.25C8.7316 191.25 11.25 193.768 11.25 196.875Z" fill="#FFC32C"/>
<path d="M11.25 235.125C11.25 238.232 8.7316 240.75 5.625 240.75C2.5184 240.75 0 238.232 0 235.125C0 232.018 2.5184 229.5 5.625 229.5C8.7316 229.5 11.25 232.018 11.25 235.125Z" fill="#FFC32C"/>
<path d="M11.25 273.375C11.25 276.482 8.7316 279 5.625 279C2.5184 279 0 276.482 0 273.375C0 270.268 2.5184 267.75 5.625 267.75C8.7316 267.75 11.25 270.268 11.25 273.375Z" fill="#FFC32C"/>
<path d="M48.2144 82.125C48.2144 85.2316 45.696 87.75 42.5894 87.75C39.4828 87.75 36.9644 85.2316 36.9644 82.125C36.9644 79.0184 39.4828 76.5 42.5894 76.5C45.696 76.5 48.2144 79.0184 48.2144 82.125Z" fill="#FFC32C"/>
<path d="M48.2144 120.375C48.2144 123.482 45.696 126 42.5894 126C39.4828 126 36.9644 123.482 36.9644 120.375C36.9644 117.268 39.4828 114.75 42.5894 114.75C45.696 114.75 48.2144 117.268 48.2144 120.375Z" fill="#FFC32C"/>
<path d="M48.2144 158.625C48.2144 161.732 45.696 164.25 42.5894 164.25C39.4828 164.25 36.9644 161.732 36.9644 158.625C36.9644 155.518 39.4828 153 42.5894 153C45.696 153 48.2144 155.518 48.2144 158.625Z" fill="#FFC32C"/>
<path d="M48.2144 196.875C48.2144 199.982 45.696 202.5 42.5894 202.5C39.4828 202.5 36.9644 199.982 36.9644 196.875C36.9644 193.768 39.4828 191.25 42.5894 191.25C45.696 191.25 48.2144 193.768 48.2144 196.875Z" fill="#FFC32C"/>
<path d="M48.2144 235.125C48.2144 238.232 45.696 240.75 42.5894 240.75C39.4828 240.75 36.9644 238.232 36.9644 235.125C36.9644 232.018 39.4828 229.5 42.5894 229.5C45.696 229.5 48.2144 232.018 48.2144 235.125Z" fill="#FFC32C"/>
<path d="M48.2144 273.375C48.2144 276.482 45.696 279 42.5894 279C39.4828 279 36.9644 276.482 36.9644 273.375C36.9644 270.268 39.4828 267.75 42.5894 267.75C45.696 267.75 48.2144 270.268 48.2144 273.375Z" fill="#FFC32C"/>
<path d="M85.1785 82.125C85.1785 85.2316 82.6601 87.75 79.5535 87.75C76.4469 87.75 73.9285 85.2316 73.9285 82.125C73.9285 79.0184 76.4469 76.5 79.5535 76.5C82.6601 76.5 85.1785 79.0184 85.1785 82.125Z" fill="#FFC32C"/>
<path d="M85.1785 120.375C85.1785 123.482 82.6601 126 79.5535 126C76.4469 126 73.9285 123.482 73.9285 120.375C73.9285 117.268 76.4469 114.75 79.5535 114.75C82.6601 114.75 85.1785 117.268 85.1785 120.375Z" fill="#FFC32C"/>
<path d="M85.1785 158.625C85.1785 161.732 82.6601 164.25 79.5535 164.25C76.4469 164.25 73.9285 161.732 73.9285 158.625C73.9285 155.518 76.4469 153 79.5535 153C82.6601 153 85.1785 155.518 85.1785 158.625Z" fill="#FFC32C"/>
<path d="M85.1785 196.875C85.1785 199.982 82.6601 202.5 79.5535 202.5C76.4469 202.5 73.9285 199.982 73.9285 196.875C73.9285 193.768 76.4469 191.25 79.5535 191.25C82.6601 191.25 85.1785 193.768 85.1785 196.875Z" fill="#FFC32C"/>
<path d="M85.1785 235.125C85.1785 238.232 82.6601 240.75 79.5535 240.75C76.4469 240.75 73.9285 238.232 73.9285 235.125C73.9285 232.018 76.4469 229.5 79.5535 229.5C82.6601 229.5 85.1785 232.018 85.1785 235.125Z" fill="#FFC32C"/>
<path d="M85.1785 273.375C85.1785 276.482 82.6601 279 79.5535 279C76.4469 279 73.9285 276.482 73.9285 273.375C73.9285 270.268 76.4469 267.75 79.5535 267.75C82.6601 267.75 85.1785 270.268 85.1785 273.375Z" fill="#FFC32C"/>
<path d="M122.143 82.125C122.143 85.2316 119.624 87.75 116.518 87.75C113.411 87.75 110.893 85.2316 110.893 82.125C110.893 79.0184 113.411 76.5 116.518 76.5C119.624 76.5 122.143 79.0184 122.143 82.125Z" fill="#FFC32C"/>
<path d="M122.143 120.375C122.143 123.482 119.624 126 116.518 126C113.411 126 110.893 123.482 110.893 120.375C110.893 117.268 113.411 114.75 116.518 114.75C119.624 114.75 122.143 117.268 122.143 120.375Z" fill="#FFC32C"/>
<path d="M122.143 158.625C122.143 161.732 119.624 164.25 116.518 164.25C113.411 164.25 110.893 161.732 110.893 158.625C110.893 155.518 113.411 153 116.518 153C119.624 153 122.143 155.518 122.143 158.625Z" fill="#FFC32C"/>
<path d="M122.143 196.875C122.143 199.982 119.624 202.5 116.518 202.5C113.411 202.5 110.893 199.982 110.893 196.875C110.893 193.768 113.411 191.25 116.518 191.25C119.624 191.25 122.143 193.768 122.143 196.875Z" fill="#FFC32C"/>
<path d="M122.143 235.125C122.143 238.232 119.624 240.75 116.518 240.75C113.411 240.75 110.893 238.232 110.893 235.125C110.893 232.018 113.411 229.5 116.518 229.5C119.624 229.5 122.143 232.018 122.143 235.125Z" fill="#FFC32C"/>
<path d="M122.143 273.375C122.143 276.482 119.624 279 116.518 279C113.411 279 110.893 276.482 110.893 273.375C110.893 270.268 113.411 267.75 116.518 267.75C119.624 267.75 122.143 270.268 122.143 273.375Z" fill="#FFC32C"/>
<path d="M159.107 82.125C159.107 85.2316 156.589 87.75 153.482 87.75C150.376 87.75 147.857 85.2316 147.857 82.125C147.857 79.0184 150.376 76.5 153.482 76.5C156.589 76.5 159.107 79.0184 159.107 82.125Z" fill="#FFC32C"/>
<path d="M159.107 120.375C159.107 123.482 156.589 126 153.482 126C150.376 126 147.857 123.482 147.857 120.375C147.857 117.268 150.376 114.75 153.482 114.75C156.589 114.75 159.107 117.268 159.107 120.375Z" fill="#FFC32C"/>
<path d="M159.107 158.625C159.107 161.732 156.589 164.25 153.482 164.25C150.376 164.25 147.857 161.732 147.857 158.625C147.857 155.518 150.376 153 153.482 153C156.589 153 159.107 155.518 159.107 158.625Z" fill="#FFC32C"/>
<path d="M159.107 196.875C159.107 199.982 156.589 202.5 153.482 202.5C150.376 202.5 147.857 199.982 147.857 196.875C147.857 193.768 150.376 191.25 153.482 191.25C156.589 191.25 159.107 193.768 159.107 196.875Z" fill="#FFC32C"/>
<path d="M159.107 235.125C159.107 238.232 156.589 240.75 153.482 240.75C150.376 240.75 147.857 238.232 147.857 235.125C147.857 232.018 150.376 229.5 153.482 229.5C156.589 229.5 159.107 232.018 159.107 235.125Z" fill="#FFC32C"/>
<path d="M159.107 273.375C159.107 276.482 156.589 279 153.482 279C150.376 279 147.857 276.482 147.857 273.375C147.857 270.268 150.376 267.75 153.482 267.75C156.589 267.75 159.107 270.268 159.107 273.375Z" fill="#FFC32C"/>
<path d="M196.072 82.125C196.072 85.2316 193.553 87.75 190.447 87.75C187.34 87.75 184.822 85.2316 184.822 82.125C184.822 79.0184 187.34 76.5 190.447 76.5C193.553 76.5 196.072 79.0184 196.072 82.125Z" fill="#FFC32C"/>
<path d="M196.072 120.375C196.072 123.482 193.553 126 190.447 126C187.34 126 184.822 123.482 184.822 120.375C184.822 117.268 187.34 114.75 190.447 114.75C193.553 114.75 196.072 117.268 196.072 120.375Z" fill="#FFC32C"/>
<path d="M196.072 158.625C196.072 161.732 193.553 164.25 190.447 164.25C187.34 164.25 184.822 161.732 184.822 158.625C184.822 155.518 187.34 153 190.447 153C193.553 153 196.072 155.518 196.072 158.625Z" fill="#FFC32C"/>
<path d="M196.072 196.875C196.072 199.982 193.553 202.5 190.447 202.5C187.34 202.5 184.822 199.982 184.822 196.875C184.822 193.768 187.34 191.25 190.447 191.25C193.553 191.25 196.072 193.768 196.072 196.875Z" fill="#FFC32C"/>
<path d="M196.072 235.125C196.072 238.232 193.553 240.75 190.447 240.75C187.34 240.75 184.822 238.232 184.822 235.125C184.822 232.018 187.34 229.5 190.447 229.5C193.553 229.5 196.072 232.018 196.072 235.125Z" fill="#FFC32C"/>
<path d="M196.072 273.375C196.072 276.482 193.553 279 190.447 279C187.34 279 184.822 276.482 184.822 273.375C184.822 270.268 187.34 267.75 190.447 267.75C193.553 267.75 196.072 270.268 196.072 273.375Z" fill="#FFC32C"/>
<path d="M233.036 82.125C233.036 85.2316 230.517 87.75 227.411 87.75C224.304 87.75 221.786 85.2316 221.786 82.125C221.786 79.0184 224.304 76.5 227.411 76.5C230.517 76.5 233.036 79.0184 233.036 82.125Z" fill="#FFC32C"/>
<path d="M233.036 120.375C233.036 123.482 230.517 126 227.411 126C224.304 126 221.786 123.482 221.786 120.375C221.786 117.268 224.304 114.75 227.411 114.75C230.517 114.75 233.036 117.268 233.036 120.375Z" fill="#FFC32C"/>
<path d="M233.036 158.625C233.036 161.732 230.517 164.25 227.411 164.25C224.304 164.25 221.786 161.732 221.786 158.625C221.786 155.518 224.304 153 227.411 153C230.517 153 233.036 155.518 233.036 158.625Z" fill="#FFC32C"/>
<path d="M233.036 196.875C233.036 199.982 230.517 202.5 227.411 202.5C224.304 202.5 221.786 199.982 221.786 196.875C221.786 193.768 224.304 191.25 227.411 191.25C230.517 191.25 233.036 193.768 233.036 196.875Z" fill="#FFC32C"/>
<path d="M233.036 235.125C233.036 238.232 230.517 240.75 227.411 240.75C224.304 240.75 221.786 238.232 221.786 235.125C221.786 232.018 224.304 229.5 227.411 229.5C230.517 229.5 233.036 232.018 233.036 235.125Z" fill="#FFC32C"/>
<path d="M233.036 273.375C233.036 276.482 230.517 279 227.411 279C224.304 279 221.786 276.482 221.786 273.375C221.786 270.268 224.304 267.75 227.411 267.75C230.517 267.75 233.036 270.268 233.036 273.375Z" fill="#FFC32C"/>
<path d="M270 82.125C270 85.2316 267.482 87.75 264.375 87.75C261.268 87.75 258.75 85.2316 258.75 82.125C258.75 79.0184 261.268 76.5 264.375 76.5C267.482 76.5 270 79.0184 270 82.125Z" fill="#FFC32C"/>
<path d="M270 120.375C270 123.482 267.482 126 264.375 126C261.268 126 258.75 123.482 258.75 120.375C258.75 117.268 261.268 114.75 264.375 114.75C267.482 114.75 270 117.268 270 120.375Z" fill="#FFC32C"/>
<path d="M270 158.625C270 161.732 267.482 164.25 264.375 164.25C261.268 164.25 258.75 161.732 258.75 158.625C258.75 155.518 261.268 153 264.375 153C267.482 153 270 155.518 270 158.625Z" fill="#FFC32C"/>
<path d="M270 196.875C270 199.982 267.482 202.5 264.375 202.5C261.268 202.5 258.75 199.982 258.75 196.875C258.75 193.768 261.268 191.25 264.375 191.25C267.482 191.25 270 193.768 270 196.875Z" fill="#FFC32C"/>
<path d="M270 235.125C270 238.232 267.482 240.75 264.375 240.75C261.268 240.75 258.75 238.232 258.75 235.125C258.75 232.018 261.268 229.5 264.375 229.5C267.482 229.5 270 232.018 270 235.125Z" fill="#FFC32C"/>
<path d="M270 273.375C270 276.482 267.482 279 264.375 279C261.268 279 258.75 276.482 258.75 273.375C258.75 270.268 261.268 267.75 264.375 267.75C267.482 267.75 270 270.268 270 273.375Z" fill="#FFC32C"/>
</svg>
